Coordinates
version=1
nRows=54
nColumns=12
inDegrees=yes

Units are S.I. units (second, meters, Newtons, ...)
Angles are in degrees

endheader
time	SC_y	SC_z	SC_x	AC_y	AC_z	AC_x	GH_y	GH_z	GH_yy	EL_x	PS_y
       0.0              -16.64          39.77          54.06          59.71         -2.141        -0.2861          133.7          42.25         -136.0          131.0           86.0
   0.01293              -16.64          39.77          54.05          59.72         -2.143        -0.2836          133.6          42.25         -136.0          131.0          85.99
   0.02586              -16.64          39.77          54.04          59.72         -2.146         -0.281          133.6          42.26         -136.0          131.0          85.99
   0.03879              -16.64          39.77          54.03          59.72         -2.149        -0.2782          133.6          42.26         -136.0          131.0          85.98
   0.05172              -16.64          39.77          54.02          59.72         -2.152        -0.2753          133.5          42.27         -136.0          131.0          85.97
   0.06465              -16.65          39.77          54.01          59.72         -2.156        -0.2722          133.5          42.28         -136.0          131.0          85.96
   0.07758              -16.65          39.77           54.0          59.72         -2.159        -0.2688          133.5          42.28         -135.9          131.0          85.95
   0.09051              -16.65          39.77          53.99          59.72         -2.163        -0.2652          133.4          42.29         -135.9          131.0          85.94
    0.1034              -16.65          39.77          53.98          59.72         -2.167        -0.2614          133.4           42.3         -135.9          131.0          85.93
    0.1164              -16.66          39.77          53.97          59.72         -2.171        -0.2573          133.3          42.31         -135.9          131.0          85.92
    0.1293              -16.66          39.77          53.95          59.72         -2.176        -0.2528          133.3          42.32         -135.8          131.0           85.9
    0.1422              -16.66          39.77          53.94          59.73         -2.181        -0.2481          133.2          42.33         -135.8          131.0          85.89
    0.1552              -16.66          39.77          53.92          59.73         -2.187        -0.2429          133.2          42.34         -135.8          131.0          85.87
    0.1681              -16.67          39.77           53.9          59.73         -2.192        -0.2374          133.1          42.35         -135.8          131.0          85.86
     0.181              -16.67          39.77          53.89          59.73         -2.199        -0.2314          133.0          42.36         -135.7          131.0          85.84
    0.1939              -16.68          39.77          53.86          59.73         -2.206        -0.2249          133.0          42.38         -135.7          130.9          85.82
    0.2069              -16.68          39.77          53.84          59.74         -2.213        -0.2178          132.9          42.39         -135.6          130.9           85.8
    0.2198              -16.68          39.76          53.82          59.74         -2.221        -0.2101          132.8          42.41         -135.6          130.9          85.78
    0.2327              -16.69          39.76          53.79          59.74          -2.23        -0.2017          132.7          42.43         -135.5          130.9          85.75
    0.2457               -16.7          39.76          53.76          59.74          -2.24        -0.1925          132.6          42.45         -135.5          130.9          85.72
    0.2586               -16.7          39.76          53.73          59.75         -2.251        -0.1824          132.5          42.47         -135.4          130.9          85.69
    0.2715              -16.71          39.76           53.7          59.75         -2.262        -0.1712          132.4          42.49         -135.4          130.9          85.66
    0.2845              -16.72          39.76          53.66          59.75         -2.275         -0.159          132.2          42.52         -135.3          130.9          85.62
    0.2974              -16.73          39.76          53.61          59.76          -2.29        -0.1453          132.1          42.54         -135.2          130.9          85.58
    0.3103              -16.74          39.76          53.57          59.76         -2.306        -0.1302          131.9          42.58         -135.1          130.9          85.54
    0.3232              -16.75          39.75          53.51          59.77         -2.324        -0.1133          131.7          42.61         -135.0          130.9          85.49
    0.3362              -16.76          39.75          53.45          59.77         -2.344       -0.09437          131.5          42.65         -134.9          130.9          85.43
    0.3491              -16.77          39.75          53.39          59.78         -2.366       -0.07307          131.3           42.7         -134.8          130.8          85.37
     0.362              -16.79          39.75          53.31          59.79         -2.392       -0.04901          131.0          42.75         -134.6          130.8           85.3
     0.375               -16.8          39.75          53.22           59.8         -2.421       -0.02169          130.7           42.8         -134.5          130.8          85.22
    0.3879              -16.82          39.74          53.13           59.8         -2.454       0.009487          130.3          42.87         -134.3          130.8          85.12
    0.4008              -16.85          39.74          53.01          59.82         -2.492        0.04527          129.9          42.95         -134.1          130.8          85.02
    0.4138              -16.87          39.74          52.88          59.83         -2.536        0.08658          129.5          43.03         -133.8          130.7          84.89
    0.4267               -16.9          39.73          52.73          59.84         -2.586         0.1346          128.9          43.13         -133.6          130.7          84.75
    0.4396              -16.94          39.72          52.56          59.86         -2.646         0.1908          128.3          43.25         -133.2          130.7          84.59
    0.4525              -16.98          39.72          52.35          59.88         -2.716          0.257          127.6          43.39         -132.8          130.6          84.39
    0.4655              -17.03          39.71           52.1           59.9         -2.799         0.3357          126.7          43.56         -132.4          130.5          84.15
    0.4784              -17.09           39.7           51.8          59.93         -2.899           0.43          125.6          43.76         -131.8          130.5          83.87
    0.4913              -17.16          39.69          51.44          59.97          -3.02         0.5441          124.4           44.0         -131.1          130.4          83.54
    0.5043              -17.25          39.68           51.0          60.01         -3.168         0.6835          122.8          44.29         -130.3          130.3          83.12
    0.5172              -17.36          39.66          50.46          60.06          -3.35         0.8555          120.9          44.65         -129.3          130.2          82.61
    0.5301              -17.49          39.64          49.79          60.13         -3.577           1.07          118.5          45.11         -128.0          130.0          81.97
    0.5431              -17.67          39.61          48.94          60.21         -3.864           1.34          115.4          45.67         -126.4          129.8          81.17
     0.556              -17.88          39.58          47.85          60.31         -4.227          1.684          111.6           46.4         -124.4          129.6          80.15
    0.5689              -18.16          39.53          46.47          60.45         -4.693          2.124          106.7          47.32         -121.8          129.3          78.84
    0.5818              -18.52          39.48          44.69          60.62         -5.291          2.688          100.4          48.51         -118.5          128.9          77.17
    0.5948              -18.97          39.41          42.42          60.84         -6.054          3.409          92.28          50.03         -114.2          128.4          75.02
    0.6077              -19.55          39.32          39.57          61.12         -7.014          4.315          82.13          51.94         -108.8          127.7          72.33
    0.6206              -20.25          39.21          36.09          61.45         -8.184           5.42          69.77          54.27         -102.3          126.9          69.05
    0.6336              -21.05          39.08          32.06          61.84          -9.54            6.7          55.43          56.97         -94.74          126.0          65.25
    0.6465              -21.93          38.95           27.7          62.26         -11.01          8.086           39.9          59.89         -86.55          125.0          61.13
    0.6594              -22.81          38.81          23.33          62.68         -12.48          9.472          24.38          62.81         -78.35          124.0          57.01
    0.6724              -23.62          38.68           19.3          63.07         -13.83          10.75          10.04          65.51         -70.78          123.1           53.2
    0.6853              -24.32          38.57          15.83          63.41          -15.0          11.86         -2.325          67.83         -64.25          122.4          49.92
